<svg viewBox="0 0 100 100" xmlns="http://www.w3.org/2000/svg">
  <g fill="#5d78ff" transform="matrix(1, 0, 0, 1, 0.00017100000695879913, -28.789386749267578)">
    <path d="M 99.891 127.468 L 66.157 31.925 C 65.856 31.156 65.556 30.9 65.156 30.9 L 34.818 30.9 C 34.417 30.9 34.117 31.412 33.817 31.925 L 0.083 127.468 C -0.118 127.981 0.083 128.749 0.283 128.749 L 9.099 128.749 C 9.399 128.749 9.7 128.493 9.9 127.981 L 40.03 42.683 L 70.16 127.981 C 70.36 128.493 70.661 128.749 70.961 128.749 L 99.79 128.749 C 99.99 129.005 100.091 127.981 99.891 127.468 Z" style=""/>
    <path d="M 51.539 102.984 L 29.935 102.984 C 28.735 102.984 27.835 103.885 27.835 105.085 L 27.835 126.689 C 27.835 127.889 28.735 128.789 29.935 128.789 L 51.539 128.789 C 52.739 128.789 53.64 127.889 53.64 126.689 L 53.64 105.085 C 53.64 103.885 52.739 102.984 51.539 102.984 Z" style=""/>
  </g>
</svg>