<?xml version="1.0" standalone="no"?>
<!DOCTYPE svg PUBLIC "-//W3C//DTD SVG 20010904//EN"
 "http://www.w3.org/TR/2001/REC-SVG-20010904/DTD/svg10.dtd">
<svg version="1.0" xmlns="http://www.w3.org/2000/svg"
 width="700.000000pt" height="700.000000pt" viewBox="0 0 700.000000 700.000000"
 preserveAspectRatio="xMidYMid meet">
<metadata>
Created by potrace 1.14, written by Peter Selinger 2001-2017
</metadata>
<g transform="translate(0.000000,700.000000) scale(0.100000,-0.100000)"
fill="#000000" stroke="none">
<path d="M2533 6850 c-116 -5 -124 -6 -140 -29 -19 -26 -48 -102 -137 -356
-30 -82 -85 -240 -124 -350 -153 -436 -313 -891 -319 -905 -3 -8 -25 -69 -48
-135 -36 -101 -103 -293 -196 -555 -11 -30 -28 -80 -39 -110 -10 -30 -66 -190
-125 -355 -59 -165 -122 -343 -140 -395 -18 -52 -60 -171 -93 -265 -33 -93
-157 -447 -276 -785 -119 -338 -221 -624 -226 -635 -5 -11 -16 -40 -24 -65 -8
-25 -26 -76 -40 -115 -14 -38 -26 -70 -25 -70 0 0 -2 -7 -5 -15 -3 -8 -33 -94
-66 -190 -34 -96 -74 -211 -90 -255 -16 -44 -68 -190 -115 -325 -119 -338
-144 -409 -161 -454 -9 -22 -28 -78 -44 -125 -16 -47 -45 -130 -64 -184 -35
-96 -42 -152 -21 -165 5 -4 150 -7 321 -8 235 -1 315 2 328 12 18 13 53 100
125 312 23 67 45 132 50 145 14 33 24 61 26 72 2 6 39 111 83 235 44 124 110
311 147 415 37 105 78 222 92 260 25 70 178 505 353 1000 50 143 102 289 115
325 13 36 37 103 53 150 62 174 153 434 267 755 210 596 246 699 267 755 11
30 21 60 23 65 1 6 5 17 8 25 4 8 75 209 158 445 83 237 175 498 204 580 29
83 70 197 90 255 20 58 42 121 50 140 7 19 16 44 20 55 8 22 1 40 103 -250 33
-93 83 -235 112 -315 28 -80 58 -165 66 -190 8 -25 19 -54 24 -65 5 -11 16
-45 25 -75 10 -30 23 -68 30 -85 7 -16 18 -43 23 -60 6 -16 35 -100 65 -185
30 -85 85 -240 122 -345 98 -279 217 -616 275 -780 134 -376 243 -687 285
-810 32 -94 39 -111 53 -145 6 -14 79 -221 162 -460 83 -239 156 -444 160
-455 5 -11 26 -67 46 -125 98 -285 409 -1164 466 -1320 11 -30 21 -59 22 -65
1 -5 4 -14 7 -20 4 -5 21 -55 39 -109 18 -55 42 -109 54 -121 l21 -21 1020 0
1020 1 -1 45 c-1 25 -17 90 -37 145 -98 276 -187 526 -384 1085 -30 85 -67
191 -83 235 -15 44 -56 159 -90 255 -34 96 -90 256 -125 355 -35 99 -89 252
-120 340 -31 88 -72 203 -90 255 -18 52 -54 154 -80 225 -25 72 -63 180 -85
240 -21 61 -64 182 -95 270 -31 88 -85 241 -120 340 -76 216 -228 646 -297
840 -27 77 -53 151 -58 165 -10 31 -174 496 -202 570 -11 30 -21 60 -23 65 -1
6 -5 17 -8 25 -3 8 -19 54 -36 103 -17 48 -45 126 -62 175 -17 48 -44 125 -61
172 -16 47 -40 114 -53 150 -29 82 -77 217 -155 440 -90 258 -110 308 -128
330 -17 20 -25 21 -982 23 -531 1 -1020 0 -1087 -3z"/>
<path d="M2023 1786 c-20 -12 -44 -37 -54 -56 -18 -33 -19 -75 -19 -831 l0
-796 23 -34 c48 -73 1 -69 881 -69 782 0 789 0 826 21 20 11 45 35 56 52 18
31 18 67 19 822 0 772 0 791 -20 829 -11 22 -33 49 -48 60 -28 21 -37 21 -828
22 -790 0 -799 0 -836 -20z"/>
</g>
</svg>
