<svg xmlns="http://www.w3.org/2000/svg" width="85" height="85" viewBox="0 0 100 100">
  <g fill="#5d78ff">
  <path d="M59.1,83.7L42.5,66.6l8.3-7.7c0,0,0,0-0.1-0.1c-0.6-0.6-1.1-1.1-1.7-1.7L34,71c-1.1,1-2.8,1-3.8,0L6.9,49.7h36.3     c-0.5-0.8-1-1.7-1.5-2.5h-38c-0.7,0-1.2,0.6-1.2,1.2v38.3c0,0.7,0.6,1.2,1.2,1.2h56.6c0.7,0,1.2-0.6,1.2-1.2V67.4     c-0.8-0.5-1.7-1-2.5-1.6V83.7z M5,51.3l16.6,15.3L5,83.7V51.3z M6.7,85.5l16.8-17.2l5,4.6c1,0.9,2.3,1.4,3.6,1.4     c1.3,0,2.6-0.5,3.6-1.4l5-4.6l16.8,17.2H6.7z" />
  <path d="M67.4,31.7c-0.1,0.7,0.3,1.3,1,1.4c2,0.3,3.8,1.3,5.2,2.7c1.4,1.4,2.4,3.2,2.7,5.2c0.1,0.6,0.6,1,1.2,1     c0.1,0,0.1,0,0.2,0c0.7-0.1,1.1-0.8,1-1.4c-0.4-2.5-1.6-4.8-3.4-6.6c-1.8-1.8-4.1-3-6.6-3.4C68.2,30.6,67.5,31.1,67.4,31.7z"/>
  <path d="M85.7,41c0.1,0.6,0.6,1.1,1.2,1.1c0,0,0.1,0,0.1,0c0.7-0.1,1.2-0.7,1.1-1.4c-0.5-5-2.7-9.7-6.2-13.2     c-3.5-3.5-8.2-5.7-13.2-6.2c-0.7-0.1-1.3,0.4-1.4,1.1c-0.1,0.7,0.4,1.3,1.1,1.4c4.4,0.4,8.6,2.3,11.7,5.5     C83.3,32.4,85.3,36.6,85.7,41z"/>
  <path d="M88.6,21c-5.3-5.3-12.4-8.5-19.8-8.9c-0.7,0-1.3,0.5-1.3,1.2c0,0.7,0.5,1.3,1.2,1.3c6.9,0.4,13.4,3.3,18.2,8.2     c4.9,4.9,7.8,11.4,8.2,18.2c0,0.7,0.6,1.2,1.2,1.2c0,0,0.1,0,0.1,0c0.7,0,1.2-0.6,1.2-1.3C97,33.3,93.9,26.3,88.6,21z"/>
  <path d="M87.4,53.6l-9.6-5c-2.3-1.2-5.1-0.6-6.6,1.5l-2.4,3.1c-2.3-1.4-4.5-2.9-7-5.4c-2.6-2.6-4.1-4.7-5.5-7.1l3-2.4     c2-1.6,2.6-4.4,1.5-6.6l-4.9-9.6c-0.7-1.3-1.9-2.3-3.4-2.7c-1.5-0.4-3-0.1-4.3,0.7l-6.1,4.1c-2,1.4-3.2,3.7-3.1,6.2     c0.1,1.7,0.3,4.1,0.8,5.9c1.9,7.2,6.4,14.6,12.6,20.9c6.3,6.3,13.7,10.7,20.9,12.6c1.7,0.5,4.2,0.7,5.9,0.8c0.1,0,0.3,0,0.4,0     c2.4,0,4.5-1.2,5.8-3.2l4-6.2c0.8-1.3,1.1-2.8,0.7-4.2C89.7,55.5,88.8,54.3,87.4,53.6z M87.4,59.8l-4,6.2c-0.8,1.3-2.2,2-3.7,2     c-0.1,0-0.2,0-0.3,0c-1.6-0.1-3.9-0.3-5.4-0.7c-6.8-1.8-13.8-6-19.7-12c-5.9-5.9-10.2-13-12-19.7c-0.4-1.5-0.6-3.8-0.7-5.4     c-0.1-1.6,0.6-3.1,2-4l6.1-4.1c0.5-0.3,1-0.5,1.6-0.5c0.2,0,0.5,0,0.7,0.1c0.8,0.2,1.4,0.7,1.8,1.4l4.9,9.6     c0.6,1.2,0.3,2.7-0.8,3.5l-3.9,3c-0.5,0.4-0.6,1-0.3,1.6c1.6,2.9,3.3,5.5,6.4,8.6c3,3,5.6,4.7,8.5,6.3c0.5,0.3,1.2,0.2,1.6-0.3     l3.1-3.9c0.8-1.1,2.3-1.4,3.5-0.8l9.6,5c0.7,0.4,1.2,1,1.4,1.8c0,0,0,0,0,0C87.9,58.3,87.8,59.2,87.4,59.8z"/>
  </g>
</svg>