<svg xmlns="http://www.w3.org/2000/svg" width="75" height="75" viewBox="0 0 85 85">
  <g transform="translate(0 -10)" fill="#5d78ff">
    <path d="M97.2,88.5l-12.8-9.8c-5-3.9-12-3.9-17.1,0l-5.9,4.5l-0.5-0.4c-3.2-2.4-7.6-2.4-10.7,0L42.1,89c-0.4,0.3-0.2,0.8,0.3,0.8     h12.5h13.8h28C97.5,89.8,97.8,88.9,97.2,88.5z"/>
    <ellipse transform="matrix(0.3804 -0.9248 0.9248 0.3804 5.3816 45.2924)" cx="36.5" cy="18.6" rx="8.5" ry="8.5"/>
    <path d="M50.9,67.2l-2.5,4c-0.2,0.2-0.1,0.6,0.2,0.7l6.7,4.1c3.2,2,7.4,0.9,9.3-2.2c2-3.2,0.9-7.4-2.2-9.3l-6.7-4.1     c-0.2-0.2-0.6-0.1-0.7,0.2l-2.5,4L42,58.2c0,0,0,0,0-0.1c-0.1-0.3-1.2-7.7-1.8-10.9c-0.1-0.4,0.1-1.6,0.2-2.6     c0.4-4.2,1.1-11.3-5.1-15.2l-6-2.8c-6.7-2.8-13-2.9-16-1.8c-0.8,0.3-3.1,1.1-10.1,11c-1.2,1.7-0.8,4,0.9,5.2c1.3,0.9,3,0.9,4.3,0     l5.4,3.3c-0.1,0.2-0.1,0.3-0.2,0.5C11.4,50,12.2,56.3,13,61.5c0.3,1.8,0.6,4.2,0.5,5.1c-2.1,4.2-7.6,16.5-7.8,17     c-1,2.2,0,4.9,2.2,5.9c0.6,0.3,1.2,0.4,1.8,0.4c1.7,0,3.3-1,4-2.6c0.1-0.1,5.9-13.2,7.8-16.9c1-2.1,0.9-4.7,0.5-7.9     c2.1,2.6,4.1,5.7,4.9,7.4c0.3,1.9-0.2,9.2-1,15.1c-0.3,2.4,1.4,4.6,3.8,4.9c0.2,0,0.4,0,0.6,0c2.2,0,4.1-1.6,4.4-3.9     c2-15.9,0.8-18.7,0.4-19.6c-0.5-1.1-3.6-6.7-7.7-11.3c0.2-0.6,0.4-1.2,0.7-1.9l6.2,3.8c0.2,1.3,0.4,2.3,0.4,2.3     c0.3,1.8,1.9,3.1,3.7,3.1c0.2,0,0.4,0,0.6,0c0.9-0.1,1.6-0.6,2.2-1.2L50.9,67.2z M10.3,38.7c2.2-2.9,4.6-6,5.7-6.9     c0.7-0.1,2.3-0.2,4.4,0.1c-2.1,2.4-4,6-5.5,9.6L10.3,38.7z M29.2,50.3c1.1-2.9,2.5-6.1,4-8.8c0,0.8-0.1,1.6-0.2,2.4     c-0.2,1.8-0.3,3.3-0.1,4.7c0.2,1.1,0.5,2.8,0.8,4.5L29.2,50.3z"/>
    </g>
</svg>
