<svg xmlns="http://www.w3.org/2000/svg" width="75" height="75" viewBox="0 0 100 100">
  <g fill="#5d78ff">
    <path d="M 50 13.2 C 29.2 13.2 13.2 29.1 13.2 50 C 13.2 70.8 29.1 86.8 50 86.8 C 70.9 86.8 86.8 70.8 86.8 50 C 86.8 29.2 70.8 13.2 50 13.2 Z M 80 52 L 83.6 52 C 83.1 59.8 80 66.8 75.2 72.3 L 72.6 69.7 C 71.8 68.9 70.5 68.9 69.8 69.7 C 69 70.5 69 71.8 69.8 72.5 L 72.4 75.1 C 66.9 80 59.8 83.1 52.1 83.5 L 52.1 80 C 52.1 78.9 51.2 78 50.1 78 C 49 78 48.1 78.9 48.1 80 L 48.1 83.6 C 40.3 83.1 33.3 80 27.8 75.2 L 30.4 72.6 C 31.2 71.8 31.2 70.5 30.4 69.8 C 29.6 69 28.3 69 27.6 69.8 L 25 72.4 C 20.1 66.9 17 59.8 16.6 52.1 L 20 52.1 C 21.1 52.1 22 51.2 22 50.1 C 22 49 21.1 48.1 20 48.1 L 16.4 48.1 C 16.9 40.3 20 33.3 24.8 27.8 L 27.4 30.4 C 27.8 30.8 28.3 31 28.8 31 C 29.3 31 29.8 30.8 30.2 30.4 C 31 29.6 31 28.3 30.2 27.6 L 27.6 25 C 33.1 20.1 40.2 17 47.9 16.6 L 47.9 20 C 47.9 21.1 48.8 22 49.9 22 C 51 22 51.9 21.1 51.9 20 L 51.9 16.4 C 59.7 16.9 66.7 20 72.2 24.8 L 69.6 27.4 C 68.8 28.2 68.8 29.5 69.6 30.2 C 70 30.6 70.5 30.8 71 30.8 C 71.5 30.8 72 30.6 72.4 30.2 L 75 27.6 C 79.9 33.1 83 40.2 83.4 47.9 L 80 47.9 C 78.9 47.9 78 48.8 78 49.9 C 78 51.1 78.9 52 80 52 Z"/>
    <path d="M 50 2.5 C 23.8 2.5 2.5 23.8 2.5 50 C 2.5 76.2 23.8 97.5 50 97.5 C 76.2 97.5 97.5 76.2 97.5 50 C 97.5 23.8 76.2 2.5 50 2.5 Z M 50 94.5 C 26 94.5 5.5 74 5.5 50 C 5.5 26 26 5.5 50 5.5 C 74 5.5 94.5 26 94.5 50 C 94.5 74 74 94.5 50 94.5 Z"/>
    <path d="M 63.7 48 L 52 48 L 52 30.3 C 52 29.2 52.1 29.3 51 29.3 C 49.9 29.3 49 29.2 49 30.3 L 49 50 C 49 51.1 49.9 51 51 51 L 63.7 51 C 64.8 51 64.7 51.1 64.7 50 C 64.7 48.9 64.8 48 63.7 48 Z"/>
  </g>
</svg>