<svg xmlns="http://www.w3.org/2000/svg" width="75" height="75" viewBox="0 0 100 100">
  <g transform="translate(0 0)" fill="#5d78ff">
    <path d="M77.7,29.6h-1.4c-0.4,0-0.7,0.2-1,0.5c-0.2,0.2-0.4,0.3-0.7,0.3H74c-0.2,0-0.4-0.1-0.5-0.2c-0.6-0.5-1.5-0.7-2.3-0.7     c-0.3,0-0.6,0-0.9,0c-1.2,0-3.7,0-7,4c-0.4,0.5,0.2,1.1,0.7,0.9c3.6-1.9,5.9-1.3,5.9,0.6v3.7h3.3v-4.6c0-0.4,0.4-0.8,0.8-0.8h0.7     c0.3,0,0.5,0.1,0.7,0.3c0.2,0.3,0.6,0.5,1,0.5h1.4c0.3,0,0.5-0.2,0.5-0.5v-3.7C78.2,29.8,78,29.6,77.7,29.6z"/>
    <path d="M46.8,38.9c6.4,0.7,12.2-3.9,12.9-10.3c0.7-6.4-3.9-12.2-10.3-12.9C42.9,15,37.2,19.6,36.5,26     C35.8,32.4,40.4,38.2,46.8,38.9z"/>
    <path d="M73.6,45.4l-0.1-4.8c0-0.2-0.2-0.4-0.4-0.4h-3.2c-0.2,0-0.4,0.2-0.4,0.4l-0.1,4.5l-11.8,1.8l-18.7-8.1     c-2.6-1.1-5.5-1-8.1,0.1c-2.6,1.2-4.5,3.4-5.3,6.1l-5.9,19.5c-0.9,3.1-0.4,6.3,1.6,8.8c1,1.3,2.2,2.3,3.6,3l-2.6,8.9H11     c-3.3,0-6,2.7-6,6c0,3.3,2.7,6,6,6h15.6c2.7,0,5-1.8,5.8-4.3l4.5-15.5h8.5l-1.6,13.1c-0.4,3.3,2,6.3,5.2,6.7c0.2,0,0.5,0,0.7,0     c3,0,5.6-2.2,5.9-5.3l2.3-19.8c0.2-1.7-0.3-3.4-1.5-4.7c-1.1-1.3-2.8-2-4.5-2H40l4.7-11l9.6,4.2c0.8,0.3,1.6,0.5,2.4,0.5     c0.3,0,0.6,0,0.9-0.1l11.5-1.8l0,2.2c0,0.6,0.5,1.1,1,1.1h2.7c0.6,0,1.1-0.5,1-1.1l-0.1-3.2c2.3-1.1,3.8-3.6,3.4-6.3     C76.9,47.8,75.5,46.2,73.6,45.4z"/>
    <path d="M93.5,2.5h-5C87.7,2.5,87,3.2,87,4v27.2h-3.9v-1c0-0.3-0.2-0.5-0.5-0.5h-0.8c-0.3,0-0.5,0.2-0.5,0.5v3.5     c0,0.3,0.2,0.5,0.5,0.5h0.8c0.3,0,0.5-0.2,0.5-0.5v-1H87V96c0,0.8,0.7,1.5,1.5,1.5h5c0.8,0,1.5-0.7,1.5-1.5V4     C95,3.2,94.3,2.5,93.5,2.5z"/>
  </g>
</svg>
